<svg width="806" height="194" viewBox="0 0 806 194" fill="none" xmlns="http://www.w3.org/2000/svg">
<path d="M150.922 85.7355L138.972 83.3275L136.736 88.5958L128.483 102.897L141.33 105.501L148.945 113.678L153.158 122.846L162.48 106.772L157.481 91.6272L150.922 85.7355Z" fill="#FF581C"/>
<path d="M199.805 162.646C197.865 162.731 185.816 159.125 185.816 159.125L171.47 137.661L165.096 146.547L166.14 149.738C166.14 149.738 177.685 163.477 185.57 167.584C193.455 171.691 202.028 169.821 202.028 169.821L214.642 160.763C214.642 160.763 201.746 162.56 199.805 162.646Z" fill="#FF581C"/>
<path d="M147.496 60.6529L140.532 67.2658L139.967 79.4526L151.414 82.9485L155.025 85.7232L160.515 78.6336L164.899 66.1901L162.025 54.5534C162.025 54.5534 153.01 40.203 147.827 33.309C142.657 26.4149 140.937 14.2648 140.937 14.2648L147.827 1.73572L132.659 10.8055V22.5401C132.659 22.5401 137.805 36.4137 143.737 43.6867C149.67 50.9597 147.496 60.6407 147.496 60.6407V60.6529Z" fill="#FF581C"/>
<path d="M57.1608 91.6272L52.162 106.772L61.4841 122.846L65.6969 113.678L73.3117 105.501L86.1588 102.897L77.9053 88.5958L75.6576 83.3275L63.7194 85.7355L57.1608 91.6272Z" fill="#FF581C"/>
<path d="M28.8261 159.125C28.8261 159.125 16.7773 162.719 14.8368 162.646C12.8962 162.56 0 160.763 0 160.763L12.6137 169.821C12.6137 169.821 21.1866 171.691 29.0717 167.584C36.9568 163.477 48.502 149.738 48.502 149.738L49.546 146.547L43.1716 137.661L28.8261 159.125Z" fill="#FF581C"/>
<path d="M59.605 85.7355L63.216 82.9608L74.6629 79.4649L74.0979 67.278L67.1339 60.6651C67.1339 60.6651 64.96 50.9841 70.8923 43.7112C76.8245 36.4382 81.9707 22.5646 81.9707 22.5646V10.83L66.8023 1.76019L73.6926 14.2893C73.6926 14.2893 71.9854 26.4394 66.8023 33.3334C61.6316 40.2275 52.6042 54.5778 52.6042 54.5778L49.7302 66.2146L54.1149 78.6581L59.605 85.7477V85.7355Z" fill="#FF581C"/>
<path d="M153.919 148.381C159.372 146.364 171.004 130.058 171.004 130.058L179.036 102.897L187.523 99.2424L199.793 104.168L186.798 90.5026L177.28 91.8472L164.924 109.975L156.744 124.129C156.744 124.129 147.348 131.036 143.897 130.583C140.446 130.131 127.5 125.792 125.99 117.382C124.479 108.972 125.425 102.946 125.425 102.946L134.722 85.2343L136.049 63.6721L129.945 49.9329C129.945 49.9329 123.361 41.7554 111.718 40.2519C93.2456 37.2938 84.6727 49.9329 84.6727 49.9329L78.5685 63.6721L79.895 85.2343L89.1925 102.946C89.1925 102.946 90.1383 108.972 88.6276 117.382C87.1169 125.792 74.1715 130.131 70.7203 130.583C67.269 131.036 57.8732 124.129 57.8732 124.129L49.6933 109.975L37.3375 91.8472L27.8189 90.5026L14.8245 104.168L27.0943 99.2424L35.5812 102.897L43.6137 130.058C43.6137 130.058 55.2448 146.352 60.6981 148.381C66.1513 150.398 80.3126 147.232 80.3126 147.232L91.649 129.593L89.1803 145.887L64.8863 163.257L58.8189 178.023C58.8189 178.023 59.2119 187.484 66.79 190.197C74.3558 192.911 83.3585 192.19 83.3585 192.19L70.2781 185.027C70.2781 185.027 64.4932 180.907 70.7817 175.297C77.0824 169.686 86.122 164.87 86.122 164.87L101.241 151.498L107.272 132.527V132.49L113.315 151.498L128.434 164.87C128.434 164.87 137.486 169.686 143.774 175.297C150.075 180.907 144.278 185.027 144.278 185.027L131.197 192.19C131.197 192.19 140.2 192.923 147.766 190.197C155.332 187.484 155.737 178.023 155.737 178.023L149.67 163.257L125.376 145.887L122.907 129.593L134.243 147.232C134.243 147.232 148.404 150.398 153.858 148.381H153.919ZM96.9057 104.572C96.9057 104.572 95.2844 103.105 92.2385 97.7878C89.1925 92.4706 89.4382 83.303 89.4382 83.303L98.9322 94.4019L101.769 103.007L96.8934 104.572H96.9057ZM122.403 97.7878C119.357 103.105 117.736 104.572 117.736 104.572L112.86 103.007L115.697 94.4019L125.191 83.303C125.191 83.303 125.425 92.4706 122.391 97.7878H122.403Z" fill="#FF581C"/>
<path d="M96.9058 16.5873L100.701 22.2834L104.545 24.3247L104.693 27.2461L102.31 27.1606L101.966 31.6833L105.049 31.7688V34.8858H109.618V31.7688L112.701 31.6833L112.357 27.1606L109.974 27.2461L110.121 24.3247L113.966 22.2834L117.761 16.5873L116.717 9.28984L113.388 6.36843C113.388 6.36843 117.319 4.47379 117.392 0.81897H112.651L110.158 3.22699L107.346 3.91151L104.533 3.22699L102.04 0.81897H97.2988C97.3602 4.46157 101.303 6.36843 101.303 6.36843L97.9743 9.28984L96.9303 16.5873H96.9058ZM104.078 9.22872L107.333 8.27529L110.588 9.22872L113.388 13.2258L112.897 16.6606L110.711 19.2642L107.358 20.2787L107.333 20.4254V20.2787L103.98 19.2642L101.794 16.6606L101.303 13.2258L104.103 9.22872H104.078Z" fill="#FF581C"/>
<path d="M407.151 193.033L407.078 169.906C407.078 169.906 356.77 179.037 356.991 159.357C365.92 159.419 390.251 159.199 390.251 159.199L390.325 138.712L356.819 138.736L356.697 131.378L332.587 131.879L332.697 136.964C332.697 136.964 327.293 137.074 324.542 137.135C324.702 143.98 325.168 157.793 325.168 157.793L333.569 157.732C333.569 174.075 344.427 192.067 359.706 192.067C374.985 192.067 407.151 193.045 407.151 193.045V193.033Z" fill="#181818"/>
<path d="M406.243 124.789L405.493 102.262L323.535 102.408L323.474 125.743L406.243 124.789Z" fill="#181818"/>
<path d="M583.301 193.033L583.24 169.906C583.24 169.906 537.194 179.037 537.403 159.357C545.571 159.419 567.85 159.199 567.85 159.199L567.912 138.712L537.243 138.736L537.133 131.378L515.074 131.879L515.172 136.964C515.172 136.964 510.223 137.074 507.705 137.135C507.852 143.98 508.282 157.793 508.282 157.793L515.971 157.732C515.971 174.075 525.907 192.067 539.896 192.067C553.886 192.067 583.314 193.045 583.314 193.045L583.301 193.033Z" fill="#181818"/>
<path d="M582.466 124.789L581.778 102.262L506.759 102.408L506.71 125.743L582.466 124.789Z" fill="#181818"/>
<path d="M622.272 104.058V103.777C614.928 103.398 607.153 103.215 599.538 103.631C598.777 124.019 600.84 160.898 600.84 164.846C600.84 168.794 597.376 172.901 591.788 171.165C591.714 173.891 591.862 187.349 591.788 193.901C592.93 193.925 600.128 194.011 601.086 193.999C601.061 193.987 601.037 193.974 601 193.962C622.751 191.09 622.616 164.687 622.616 164.687C622.616 164.687 622.113 106.039 622.272 104.034V104.058Z" fill="#181818"/>
<path d="M707.731 187.606C706.945 182.57 707.682 177.387 707.092 172.913C698.581 172.473 689.48 168.232 687.441 159.296C715.579 155.397 707.51 102.592 707.51 102.592C707.51 102.592 656.318 103.301 631.029 103.875C631.177 107.09 631.128 120.634 631.14 124.068H632.27L666.23 125.23C666.23 125.23 678.475 125.242 684.739 125.254C684.714 129.838 684.69 134.446 684.653 139.103C676.657 139.042 668.6 138.993 660.556 138.932L660.605 131.696C652.965 131.659 644.933 131.635 637.355 131.61C637.355 133.872 637.355 136.133 637.355 138.382C635.426 138.382 631.508 138.382 629.58 138.394C629.605 145.386 629.629 152.231 629.654 159.321C632.208 159.321 634.825 159.321 637.453 159.309C637.453 170.395 637.342 181.531 637.318 193.204C645.621 193.18 653.309 193.168 660.678 193.155C660.678 181.873 660.703 171.288 660.715 159.431C662.496 159.443 664.4 159.492 666.279 159.48C667.311 167.144 670.541 174.686 675.994 180.321C675.994 180.321 675.994 180.296 675.994 180.284C681.189 185.809 687.65 188.828 694.909 191.016C694.823 190.992 694.712 190.98 694.626 190.955C697.77 191.848 700.509 192.508 703.887 192.899C703.801 192.899 703.715 192.899 703.629 192.887C704.771 193.021 706.368 193.131 707.719 193.229C707.719 193.229 707.719 193.229 707.719 193.217C707.756 191.407 707.878 189.415 707.731 187.594V187.606Z" fill="#181818"/>
<path d="M805.361 189.219C805.153 183.609 804.919 177.192 804.698 170.97C799.159 170.823 798.115 167.767 798.115 162.034C798.115 156.302 797.464 137.367 797.55 131.451C789.542 131.341 781.448 131.182 773.453 131.195C773.453 132.539 773.44 134.617 773.489 135.937C767.434 136.06 761.735 135.937 755.545 135.913C755.459 143.87 755.607 151.266 755.545 159.113C761.33 159.125 767.582 159.431 773.575 158.991C774.116 161.289 773.747 172.045 773.772 174.478C773.772 174.441 773.846 192.874 805.57 192.874C805.509 191.823 805.46 190.124 805.337 189.219H805.361Z" fill="#181818"/>
<path d="M717.667 103.814L717.974 126.097L724.889 126.122L724.533 147.293C724.533 147.293 726.584 171.715 716.574 172.779C716.513 179.587 716.451 186.384 716.427 193.155C758.567 199.597 748.446 152.353 748.839 125.792C761.809 126.305 805.57 125.45 805.57 125.45L806 102.445L717.667 103.802V103.814Z" fill="#181818"/>
<path d="M499.439 192.911C499.095 186.225 499.193 179.465 499.353 172.754C490.768 172.327 481.458 168.281 479.37 159.199C507.557 155.116 499.451 103.79 499.451 103.79C499.451 103.79 440.669 103.215 411.892 103.802C412.003 105.097 411.966 125.743 411.966 125.743C411.966 125.743 452.939 125.205 450.016 125.12C458.785 125.12 467.641 125.156 476.631 125.168C476.607 129.74 476.57 134.336 476.545 138.969C464.877 138.895 453.136 138.834 441.468 138.749C441.468 136.328 441.492 133.92 441.492 131.525C433.693 131.5 425.943 131.488 418.181 131.5C418.181 133.346 418.181 136.451 418.205 138.309C415.638 138.333 413.084 138.321 410.443 138.333C410.455 145.19 410.468 152.17 410.48 159.211C411.769 159.211 417.063 159.211 418.267 159.211C418.23 169.906 418.107 182.02 418.144 193.094C426.348 193.082 434.037 193.058 441.492 193.045C441.504 181.873 441.529 171.202 441.541 159.333C447.105 159.419 452.927 159.382 458.196 159.382C460.542 193.106 495.902 193.094 499.439 192.923V192.911Z" fill="#181818"/>
<path d="M298.394 159.59C326.581 155.507 318.475 104.181 318.475 104.181C318.475 104.181 259.693 103.606 230.916 104.193C231.026 105.489 230.989 126.134 230.989 126.134C230.989 126.134 271.962 125.596 269.039 125.511C277.809 125.511 286.664 125.547 295.655 125.56C295.63 130.131 295.593 134.727 295.569 139.36C283.901 139.287 272.159 139.225 260.491 139.14C260.491 136.72 260.516 134.312 260.516 131.916C252.716 131.891 244.966 131.879 237.204 131.891C237.204 133.737 237.204 136.842 237.229 138.7C234.662 138.724 232.107 138.712 229.466 138.724C229.479 145.582 229.491 152.561 229.503 159.602C230.793 159.602 236.086 159.602 237.29 159.602C237.253 170.298 237.13 182.411 237.167 193.485C245.372 193.473 253.06 193.449 260.516 193.437C260.528 182.264 260.565 159.724 260.565 159.724L298.394 159.602V159.59Z" fill="#181818"/>
<path d="M317.222 22.9312L407.274 23.408L407.053 0L318.413 1.44237L317.222 22.9312Z" fill="#181818"/>
<path d="M379.554 56.9858C379.615 50.2385 379.676 43.4422 379.738 36.6582C369.224 36.5971 358.748 36.4382 348.259 36.5359C348.234 34.0546 348.234 31.5732 348.21 29.0307C340.386 29.0674 332.685 29.043 324.751 29.0063C324.726 30.6442 324.751 32.3311 324.702 33.9812C322.049 33.8835 319.224 33.9812 316.817 33.9568C316.841 42.2199 316.853 49.6273 316.878 57.2792C319.457 57.2914 324.702 57.3159 324.702 57.3159C325.402 97.9345 367.063 95.0131 407.176 91.3949L406.894 68.2803C406.894 68.2803 353.037 74.1231 348.897 66.0801C346.883 62.3519 347.78 59.5161 348.517 57.4992C351.268 56.6925 372.246 56.9614 379.566 56.9858H379.554Z" fill="#181818"/>
<path d="M415.466 27.405L415.552 45.8625L481.114 44.4568C481.114 44.4568 472.652 59.5528 424.899 73.9887C427.012 80.6627 428.154 84.7943 430.303 91.3827C462.016 81.2128 508.209 69.6249 499.206 27.2339C493.937 27.2339 415.479 27.3928 415.479 27.3928L415.466 27.405Z" fill="#181818"/>
<path d="M423.646 1.89461L424.322 20.0465L493.765 21.6355L493.814 0.928955L423.646 1.89461Z" fill="#181818"/>
<path d="M507.84 27.405L507.926 45.8625L572.604 44.4568C572.604 44.4568 564.252 59.5528 517.138 73.9887C519.226 80.6627 520.343 84.7943 522.468 91.3827C553.751 81.2128 599.329 69.6249 590.449 27.2339C585.254 27.2339 507.84 27.3928 507.84 27.3928V27.405Z" fill="#181818"/>
<path d="M584.382 20.6576L583.719 2.51801L515.209 0.928955L515.148 21.6355L584.382 20.6576Z" fill="#181818"/>
<path d="M284.318 29.043C285.534 46.2536 287.757 68.916 267.099 68.8671C246.453 68.8304 229.54 68.9771 229.54 68.9771L229.466 89.1947C229.466 89.1947 270.439 90.5271 279.651 88.9747C295.077 87.6546 304.522 74.1721 307.445 57.0836V57.0959C308.6 47.8671 307.974 29.1408 307.974 29.1408C307.974 29.1408 289.44 29.0797 284.331 29.0308L284.318 29.043Z" fill="#181818"/>
<path d="M229.233 23.4079L307.138 22.4545L306.426 1.45457C306.426 1.45457 250.702 0.855624 229.282 0.831177C229.331 8.37306 229.233 23.4079 229.233 23.4079Z" fill="#181818"/>
<path d="M634.431 56.3136V29.8253H630.845V25.8038H642.525V29.8253H639.074V56.3136H634.419H634.431Z" fill="#FF581C"/>
<path d="M661.55 56.3136L665.923 25.8038H672.088L676.743 56.3136H672.383L671.646 50.8741H666.697L666.033 56.3136H661.538H661.55ZM671.167 47.146L669.116 31.8177H669.042L667.163 47.146H671.167Z" fill="#FF581C"/>
<path d="M699.011 56.3136V29.8253H695.424V25.8038H707.105V29.8253H703.653V56.3136H698.998H699.011Z" fill="#FF581C"/>
<path d="M729.09 56.3136V29.8253H725.503V25.8038H737.183V29.8253H733.732V56.3136H729.077H729.09Z" fill="#FF581C"/>
<path d="M769.166 54.4556C768.097 55.9224 766.39 56.6558 764.032 56.6558C761.674 56.6558 759.954 55.9224 758.861 54.4434C757.768 52.9643 757.216 50.7519 757.216 47.7816V33.8224C757.216 28.224 759.512 25.4371 764.094 25.4371C766.464 25.4371 768.171 26.146 769.203 27.564C770.235 28.9819 770.763 31.0721 770.763 33.8224V47.7816C770.763 50.7641 770.235 52.9888 769.166 54.4556ZM762.325 51.5831C762.595 52.2921 763.16 52.6343 764.008 52.6343C764.855 52.6343 765.408 52.2676 765.678 51.5464C765.948 50.8252 766.083 49.5907 766.083 47.8305V33.6146C766.083 32.1722 765.948 31.121 765.678 30.4487C765.408 29.7764 764.867 29.4464 764.081 29.4464C763.295 29.4464 762.73 29.7764 762.411 30.4487C762.092 31.121 761.932 32.16 761.932 33.5901V47.8183C761.932 49.6151 762.067 50.8619 762.337 51.5586L762.325 51.5831Z" fill="#FF581C"/>
<path d="M804.391 54.4556C803.322 55.9224 801.615 56.6558 799.257 56.6558C796.899 56.6558 795.179 55.9224 794.086 54.4434C792.993 52.9643 792.441 50.7519 792.441 47.7816V33.8224C792.441 28.224 794.737 25.4371 799.318 25.4371C801.689 25.4371 803.396 26.146 804.428 27.564C805.46 28.9819 805.988 31.0721 805.988 33.8224V47.7816C805.988 50.7641 805.46 52.9888 804.391 54.4556ZM797.55 51.5831C797.82 52.2921 798.385 52.6343 799.233 52.6343C800.08 52.6343 800.633 52.2676 800.903 51.5464C801.173 50.8252 801.308 49.5907 801.308 47.8305V33.6146C801.308 32.1722 801.173 31.121 800.903 30.4487C800.633 29.7764 800.092 29.4464 799.306 29.4464C798.52 29.4464 797.955 29.7764 797.636 30.4487C797.317 31.121 797.157 32.16 797.157 33.5901V47.8183C797.157 49.6151 797.292 50.8619 797.562 51.5586L797.55 51.5831Z" fill="#FF581C"/>
</svg>
